<svg width="40" height="40" viewBox="0 0 40 40" fill="none" xmlns="http://www.w3.org/2000/svg">
<path d="M4.5332 26.8644C4.5332 25.7598 5.42863 24.8644 6.5332 24.8644H22.0385C23.1431 24.8644 24.0385 25.7598 24.0385 26.8644V30.5722C24.0385 31.6767 23.1431 32.5722 22.0385 32.5722H6.53321C5.42864 32.5722 4.5332 31.6767 4.5332 30.5722V26.8644Z" fill="#E2CECC"/>
<path opacity="0.75" fill-rule="evenodd" clip-rule="evenodd" d="M5 2.03043C3.89543 2.03043 3 2.92586 3 4.03043V9.20909C3 10.0134 3.47483 10.7069 4.15947 11.0244L6.30151 15.0335L8.34488 11.2091H26.6581C27.7627 11.2091 28.6581 10.3137 28.6581 9.20908V4.03043C28.6581 2.92586 27.7627 2.03043 26.6581 2.03043H5Z" fill="#316058"/>
<path opacity="0.75" fill-rule="evenodd" clip-rule="evenodd" d="M14.6694 14.1684C13.5649 14.1684 12.6694 15.0638 12.6694 16.1684V20.6626C12.6694 21.7672 13.5649 22.6626 14.6694 22.6626H31.9528L34.0832 26.3527L36.2225 22.6473C37.2099 22.525 37.9741 21.683 37.9741 20.6626V16.1684C37.9741 15.0638 37.0787 14.1684 35.9741 14.1684H14.6694Z" fill="#D15E2E"/>
<path d="M4.76963 30.8026L10.8998 30.8026L7.83471 36.1114L4.76963 30.8026Z" fill="#E2CECC"/>
</svg>
